:SAMPLES-PER-SECOND 30
:FULLY-SPECIFIED
:DEGREES
230
root  -11.5216 38.3195 -50.0704 -179.863 42.5691 -178.157
RightUpLeg  -6.63254 -2.03331 7.56334
RightLeg  26.0838 7.08573 -5.62573
RightFoot  -18.679 -0.0778328 -2.88082
RightToes  -5.82073e-011 -3.18055e-015 -2.98177e-016
Spine  1.55638 -3.39768 2.08101
Spine1  6.17257 -3.50356 4.3172
HEad  14.107 -31.0522 5.17378
LeftShoulder1  -3.88251e-019 9.70628e-020 -3.87848e-018
LeftArm  -66.4698 78.5019 -99.8375
LeftForeArm  -19.6221 -9.55382 -0.175932
LeftHand  -0.150739 3.04295 8.57207
RightShoulder  6.58175 9.47731 32.9286
RightArm  26.7233 -54.9413 -12.1682
RightForeArm  -0.191063 17.1268 -6.80848
RightHand  -0.957229 -0.488942 -22.1208
LeftUpLeg  -24.2088 9.42718 0.51891
LeftLeg  55.6381 -0.204148 22.6729
LeftFoot  0.650483 -0.19434 1.59143
LeftToes  1.2018e-011 -3.94675e-011 -1.33631e-011
231
root  -10.9932 38.4115 -51.1952 179.364 47.3473 -178.618
RightUpLeg  -3.48771 1.20781 6.40186
RightLeg  24.3793 8.37479 -4.78293
RightFoot  -19.2496 -0.0792449 -2.67449
RightToes  -5.82073e-011 -3.18055e-015 -2.98177e-016
Spine  1.80343 -2.22489 4.57951
Spine1  5.92661 -1.5891 0.808239
HEad  13.4255 -31.4072 5.762
LeftShoulder1  -3.88251e-019 9.70628e-020 -3.87848e-018
LeftArm  -82.1153 81.949 -114.034
LeftForeArm  -17.9773 -7.21233 0.216664
LeftHand  -0.0841641 3.60256 6.24911
RightShoulder  6.60862 9.50501 33.0123
RightArm  32.1522 -55.2667 -11.7268
RightForeArm  -4.06015 19.6388 -8.93731
RightHand  -1.00277 0.153104 -20.4242
LeftUpLeg  -24.3223 8.97741 0.996464
LeftLeg  47.1475 3.40635 20.8125
LeftFoot  -1.76364 0.0483135 -0.567749
LeftToes  1.2018e-011 -3.94675e-011 -1.33631e-011
232
root  -10.4739 38.4367 -52.3093 178.43 52.8716 -178.769
RightUpLeg  -0.166326 3.83132 5.63916
RightLeg  22.3656 10.9053 -4.3353
RightFoot  -20.1815 -0.0700149 -2.22078
RightToes  -5.82073e-011 -3.18055e-015 -2.98177e-016
Spine  2.43911 -0.758358 7.34647
Spine1  6.06683 0.679809 -2.75893
HEad  11.7293 -31.3941 6.72145
LeftShoulder1  -3.88251e-019 9.70628e-020 -3.87848e-018
LeftArm  -101.41 84.0621 -132.939
LeftForeArm  -16.3173 -5.01734 0.185497
LeftHand  -0.0407058 4.21252 3.70868
RightShoulder  6.67761 9.56797 33.2439
RightArm  33.2371 -54.9842 -9.72428
RightForeArm  -8.19206 21.3083 -10.7498
RightHand  -0.808852 0.341168 -15.9462
LeftUpLeg  -22.3093 7.7233 2.9488
LeftLeg  36.2533 4.90704 15.6232
LeftFoot  -3.78081 0.191845 -2.42968
LeftToes  1.2018e-011 -3.94675e-011 -1.33631e-011
233
root  -9.92538 38.4169 -53.398 177.428 58.106 -179.005
RightUpLeg  2.75473 5.48519 4.57334
RightLeg  20.8622 14.3875 -3.74702
RightFoot  -21.1146 -0.0283371 -1.40471
RightToes  -5.82073e-011 -3.18055e-015 -2.98177e-016
Spine  2.83772 0.480153 8.94534
Spine1  6.92202 2.52685 -5.35015
HEad  9.79745 -30.8413 7.47173
LeftShoulder1  -3.88251e-019 9.70628e-020 -3.87848e-018
LeftArm  -122.902 84.6786 -154.509
LeftForeArm  -14.8392 -3.40334 0.0958563
LeftHand  -0.0180922 5.26185 1.13274
RightShoulder  6.80949 9.68701 33.685
RightArm  31.2331 -53.3889 -6.07043
RightForeArm  -10.5452 22.118 -11.4006
RightHand  -0.580956 -0.108565 -12.4924
LeftUpLeg  -19.2666 3.18339 5.67375
LeftLeg  24.5828 3.40304 9.49646
LeftFoot  -4.56627 0.17039 -2.46929
LeftToes  1.2018e-011 -3.94675e-011 -1.33631e-011
234
root  -9.35162 38.2193 -54.4987 176.752 62.5828 -179.015
RightUpLeg  4.51919 9.10689 3.49917
RightLeg  21.6289 15.4058 -2.83705
RightFoot  -22.6271 0.00627774 -0.805052
RightToes  -5.82073e-011 -3.18055e-015 -2.98177e-016
Spine  2.86041 1.28942 9.52671
Spine1  8.09646 3.71168 -6.87854
HEad  8.46233 -29.9729 7.71334
LeftShoulder1  -3.88251e-019 9.70628e-020 -3.87848e-018
LeftArm  -138.77 84.0864 -170.255
LeftForeArm  -12.7653 -2.50743 0.310353
LeftHand  -0.0298312 6.05513 -0.54903
RightShoulder  6.90256 9.77325 33.9872
RightArm  28.6768 -51.1345 -1.67861
RightForeArm  -9.9981 22.3595 -11.6022
RightHand  -0.515112 -0.244875 -11.3326
LeftUpLeg  -17.0668 -5.11755 8.87892
LeftLeg  16.5357 0.297287 5.61303
LeftFoot  -4.15531 0.38868 -5.0426
LeftToes  1.2018e-011 -3.94675e-011 -1.33631e-011
